<svg width="47" height="47" viewBox="0 0 47 47" fill="none" xmlns="http://www.w3.org/2000/svg">
<ellipse cx="23.5" cy="23.9585" rx="23.5" ry="23" fill="white"/>
<path d="M19.2333 32.9585C27.9129 32.9585 32.6595 25.6494 32.6595 19.3112C32.6595 19.1036 32.6554 18.897 32.6461 18.6912C33.5697 18.0119 34.3668 17.1708 35 16.2074C34.1545 16.5895 33.2446 16.8467 32.2901 16.9626C33.2644 16.3688 34.0123 15.4294 34.3652 14.3097C33.4389 14.8682 32.4255 15.262 31.3688 15.4739C30.5077 14.5416 29.2817 13.9585 27.9243 13.9585C25.3184 13.9585 23.2052 16.1065 23.2052 18.7543C23.2052 19.1308 23.2466 19.4968 23.3276 19.848C19.4057 19.6474 15.928 17.7388 13.6006 14.8366C13.1814 15.5686 12.9609 16.4005 12.9616 17.2474C12.9616 18.9115 13.7947 20.3805 15.0615 21.24C14.3122 21.2167 13.5792 21.011 12.9244 20.6401C12.9237 20.6602 12.9237 20.6798 12.9237 20.7014C12.9237 23.0243 14.5502 24.9637 16.7094 25.4032C16.3039 25.5155 15.8855 25.5722 15.4651 25.572C15.1616 25.572 14.8658 25.5416 14.5783 25.4855C15.179 27.3913 16.9211 28.7782 18.9864 28.8169C17.3713 30.1037 15.3368 30.8701 13.1256 30.8701C12.7494 30.8704 12.3736 30.8482 12 30.8036C14.0884 32.1642 16.5682 32.9582 19.2335 32.9582" fill="#1DA1F2"/>
</svg>
