<svg width="46" height="47" viewBox="0 0 46 47" fill="none" xmlns="http://www.w3.org/2000/svg">
<circle cx="23" cy="23.9585" r="23" fill="white"/>
<path d="M24.1425 33.9323L18.1928 33.8238C16.2664 33.786 14.3353 33.8615 12.4467 33.4698C9.57366 32.8847 9.37013 30.0155 9.15715 27.6089C8.86369 24.2254 8.9773 20.7805 9.53109 17.4253C9.84373 15.5427 11.0741 14.4193 12.9768 14.2971C19.3998 13.8534 25.8655 13.906 32.2742 14.113C32.9511 14.1319 33.6326 14.2357 34.3 14.3537C37.5944 14.9294 37.6747 18.1808 37.8883 20.9178C38.1013 23.6831 38.0114 26.4626 37.6043 29.2091C37.2777 31.483 36.6529 33.39 34.0159 33.5741C30.7121 33.8148 27.484 34.0086 24.1708 33.9469C24.171 33.9323 24.1519 33.9323 24.1425 33.9323ZM20.6446 28.1752C23.1344 26.75 25.5767 25.3485 28.0522 23.9328C25.5578 22.5076 23.1202 21.1061 20.6446 19.6905V28.1752Z" fill="#FF0000"/>
</svg>
